<?xml version="1.0" standalone="no"?>
<!DOCTYPE svg PUBLIC "-//W3C//DTD SVG 20010904//EN"
 "http://www.w3.org/TR/2001/REC-SVG-20010904/DTD/svg10.dtd">
<svg version="1.0" xmlns="http://www.w3.org/2000/svg"
 width="958.000000pt" height="260.000000pt" viewBox="0 0 958.000000 260.000000"
 preserveAspectRatio="xMidYMid meet">

<g transform="translate(0.000000,260.000000) scale(0.100000,-0.100000)"
fill="#000000" stroke="none">
<path d="M8615 2473 c-37 -10 -87 -55 -106 -97 -60 -132 43 -270 188 -253 83
9 153 90 153 177 0 93 -70 168 -161 175 -30 2 -63 1 -74 -2z"/>
<path d="M870 2061 l0 -325 -27 26 c-91 84 -230 110 -367 68 -88 -28 -182
-113 -229 -209 -30 -62 -32 -72 -32 -176 0 -106 2 -114 34 -180 42 -84 107
-152 183 -189 130 -63 306 -46 409 41 l29 25 0 -46 0 -46 130 0 130 0 0 668 0
667 -130 0 -130 0 0 -324z m-109 -441 c80 -41 125 -146 100 -231 -13 -42 -60
-102 -95 -121 -59 -32 -142 -26 -199 14 -37 27 -77 111 -77 163 1 140 149 237
271 175z"/>
<path d="M5747 2383 c-4 -3 -7 -305 -7 -670 l0 -663 135 0 135 0 2 172 3 173
138 -173 137 -172 170 0 171 0 -183 201 c-101 110 -184 204 -186 208 -3 8 149
181 276 314 30 32 53 59 51 60 -2 1 -78 0 -169 -3 l-165 -5 -120 -148 -120
-149 -3 431 -2 431 -128 0 c-71 0 -132 -3 -135 -7z"/>
<path d="M6690 1720 l0 -670 130 0 130 0 0 46 0 46 34 -30 c68 -60 195 -90
298 -72 130 24 233 104 291 228 39 84 49 206 23 294 -36 123 -140 232 -258
270 -118 37 -286 9 -349 -58 -12 -13 -26 -24 -31 -24 -4 0 -8 144 -8 320 l0
320 -130 0 -130 0 0 -670z m525 -99 c51 -24 81 -56 100 -110 26 -74 13 -139
-38 -198 -75 -85 -199 -85 -274 0 -31 35 -53 90 -53 133 0 65 50 142 112 173
53 26 100 26 153 2z"/>
<path d="M9071 2125 c-83 -23 -115 -47 -263 -193 l-137 -136 69 -72 c75 -80
110 -137 110 -182 0 -62 -31 -105 -172 -241 -230 -223 -238 -261 -91 -413 l77
-78 165 162 c556 545 612 603 639 658 38 79 43 197 11 281 -58 157 -251 257
-408 214z"/>
<path d="M8073 2116 c-99 -32 -172 -98 -216 -194 -30 -65 -29 -196 1 -264 29
-66 91 -129 159 -164 52 -26 67 -29 153 -29 141 1 177 20 352 192 l139 138
-138 136 c-168 165 -210 191 -328 196 -50 2 -96 -2 -122 -11z"/>
<path d="M1756 1830 c-32 -10 -76 -32 -97 -49 -21 -17 -41 -31 -44 -31 -4 0
-5 18 -3 40 l4 40 -133 0 -133 0 0 -610 0 -610 133 0 132 0 -3 252 c-1 138 0
258 2 265 4 9 13 6 32 -12 96 -89 284 -104 417 -33 257 138 283 520 45 694
-96 71 -233 92 -352 54z m152 -226 c140 -112 88 -338 -83 -352 -71 -6 -118 12
-159 60 -114 133 -18 338 152 325 39 -3 61 -11 90 -33z"/>
<path d="M2870 1836 c-48 -13 -109 -46 -130 -71 -21 -25 -30 -17 -30 25 l0 40
-130 0 -130 0 0 -610 0 -610 130 0 130 0 0 265 c0 146 3 265 8 265 4 0 13 -9
19 -19 18 -29 111 -70 183 -80 179 -25 335 61 413 227 25 54 32 83 35 153 5
107 -12 173 -68 257 -93 139 -266 203 -430 158z m109 -216 c77 -39 118 -115
108 -202 -7 -60 -49 -124 -97 -149 -42 -23 -129 -25 -169 -5 -62 32 -111 115
-111 186 0 32 41 120 66 142 55 48 141 60 203 28z"/>
<path d="M3977 1839 c-50 -12 -89 -33 -132 -70 l-35 -31 0 46 0 46 -130 0
-130 0 0 -610 0 -610 130 0 130 0 0 265 0 265 44 -34 c77 -58 189 -84 289 -65
196 35 327 197 327 404 0 92 -20 158 -71 234 -90 135 -257 199 -422 160z m102
-219 c180 -91 125 -370 -74 -370 -25 0 -60 6 -79 14 -75 31 -129 143 -107 222
33 123 157 187 260 134z"/>
<path d="M4883 1835 c-143 -44 -245 -166 -274 -325 -38 -217 115 -436 329
-470 104 -17 228 16 295 78 l27 26 0 -47 0 -47 135 0 135 0 0 390 0 390 -135
0 -135 0 0 -41 0 -41 -40 32 c-79 62 -234 88 -337 55z m260 -211 c105 -53 146
-168 96 -271 -39 -80 -118 -117 -213 -99 -77 15 -139 101 -138 194 1 134 143
232 255 176z"/>
<path d="M5549 358 c-2 -126 0 -201 7 -207 4 -3 9 -1 11 5 3 9 12 9 32 1 39
-15 78 -2 96 33 19 37 19 60 -1 88 -24 35 -60 45 -95 28 l-29 -14 0 69 c0 39
-4 69 -10 69 -6 0 -11 -32 -11 -72z m119 -80 c24 -31 23 -57 -2 -83 -30 -30
-49 -32 -76 -5 -24 24 -26 57 -3 82 18 21 66 24 81 6z"/>
<path d="M8427 423 c-4 -3 -7 -66 -7 -140 0 -112 2 -133 15 -133 8 0 15 5 15
10 0 7 6 7 19 0 30 -16 65 -12 89 10 47 44 36 111 -21 138 -23 11 -32 11 -57
-2 l-30 -14 0 69 c0 64 -6 80 -23 62z m123 -153 c18 -33 8 -73 -21 -89 -24
-13 -29 -13 -53 2 -30 20 -35 66 -10 91 23 23 71 20 84 -4z"/>
<path d="M5010 275 c0 -77 4 -125 10 -125 6 0 10 25 10 55 0 30 3 55 8 55 4
-1 24 -25 45 -55 21 -30 45 -55 54 -55 12 0 10 7 -9 33 -13 17 -35 46 -48 64
l-23 31 47 61 c35 47 42 61 28 61 -9 -1 -35 -26 -57 -58 l-40 -57 -3 58 c-2
31 -7 57 -12 57 -6 0 -10 -53 -10 -125z"/>
<path d="M7640 302 c0 -86 -3 -101 -20 -117 -13 -12 -27 -15 -46 -11 -19 5
-25 3 -22 -6 7 -20 56 -22 84 -3 23 15 24 20 24 125 0 67 -4 110 -10 110 -6 0
-10 -39 -10 -98z"/>
<path d="M4340 335 l-13 -45 -51 0 -51 0 40 -34 c39 -33 39 -34 27 -72 -6 -21
-10 -40 -7 -42 2 -2 19 8 38 22 l34 26 38 -30 c21 -16 39 -30 41 -30 1 0 -4
21 -13 47 l-16 47 39 33 39 33 -51 0 -52 0 -11 45 c-6 25 -13 45 -15 45 -2 0
-9 -20 -16 -45z"/>
<path d="M4659 340 c-15 -44 -17 -45 -64 -50 l-49 -5 38 -31 39 -31 -16 -47
-16 -47 41 30 42 31 33 -26 c19 -14 36 -24 39 -22 2 3 -2 23 -10 46 l-15 40
42 29 41 28 -51 3 -50 3 -15 47 -14 47 -15 -45z"/>
<path d="M6690 345 c0 -28 -4 -35 -20 -35 -11 0 -20 -4 -20 -10 0 -5 9 -10 20
-10 18 0 20 -7 20 -70 0 -40 4 -70 10 -70 6 0 10 30 10 70 0 63 2 70 20 70 11
0 20 5 20 10 0 6 -9 10 -20 10 -16 0 -20 7 -20 35 0 19 -4 35 -10 35 -5 0 -10
-16 -10 -35z"/>
<path d="M4011 345 c-6 -16 -14 -36 -16 -42 -3 -8 -23 -13 -52 -13 l-48 -1 38
-32 38 -33 -14 -42 c-8 -23 -12 -42 -8 -42 4 0 22 11 41 25 l33 25 34 -26 c19
-14 36 -24 39 -22 2 3 -2 23 -10 46 l-15 40 42 29 41 28 -52 3 c-50 3 -51 4
-65 45 l-15 42 -11 -30z"/>
<path d="M5295 308 c-51 -29 -61 -93 -20 -133 26 -27 54 -31 88 -14 16 9 22 9
25 0 2 -6 8 -11 13 -11 5 0 9 36 9 80 0 47 -4 80 -10 80 -5 0 -10 -4 -10 -9 0
-6 -12 -3 -27 5 -33 17 -42 17 -68 2z m81 -43 c42 -65 -45 -127 -93 -66 -17
22 -16 42 3 69 21 31 69 30 90 -3z"/>
<path d="M6148 305 c-16 -7 -28 -10 -28 -4 0 5 -7 9 -15 9 -13 0 -15 -21 -15
-125 0 -104 2 -125 15 -125 11 0 15 13 15 54 l0 54 28 -10 c40 -16 79 -3 97
32 21 40 19 65 -7 94 -30 32 -57 39 -90 21z m72 -35 c18 -33 8 -73 -21 -89
-24 -13 -29 -13 -53 2 -28 19 -34 53 -16 88 15 27 75 26 90 -1z"/>
<path d="M6423 310 c-80 -32 -59 -160 27 -160 14 0 32 6 38 12 10 10 15 10 22
-2 16 -26 25 0 25 76 0 53 -3 74 -12 74 -7 0 -13 -4 -13 -9 0 -6 -12 -3 -27 5
-32 16 -31 16 -60 4z m69 -37 c24 -21 23 -58 -2 -83 -27 -27 -46 -25 -76 5
-25 26 -26 52 -2 83 15 17 58 15 80 -5z"/>
<path d="M6905 311 c-29 -12 -44 -33 -51 -69 -5 -26 -1 -36 24 -62 36 -35 75
-39 112 -10 33 25 17 39 -20 16 -26 -15 -34 -15 -57 -4 -52 25 -40 38 36 38
68 0 71 1 71 23 0 45 -70 86 -115 68z m73 -33 c26 -26 13 -38 -43 -38 -59 0
-60 1 -45 31 12 22 68 27 88 7z"/>
<path d="M7192 310 c-12 -5 -29 -7 -37 -4 -13 5 -15 -7 -15 -75 0 -94 14 -108
24 -22 7 64 22 84 58 79 21 -3 23 -9 26 -70 2 -52 6 -68 17 -68 12 0 15 14 15
60 0 51 -4 65 -25 85 -26 27 -29 28 -63 15z"/>
<path d="M7825 308 c-32 -17 -45 -39 -45 -75 0 -69 78 -107 131 -64 32 26 20
35 -19 15 -33 -16 -56 -10 -82 20 -14 18 -1 21 77 16 23 -1 47 1 52 4 17 11
-9 66 -40 81 -33 18 -47 18 -74 3z m77 -35 c29 -26 21 -33 -42 -33 -33 0 -60
3 -60 7 0 3 7 15 17 25 20 22 61 23 85 1z"/>
<path d="M8112 304 c-12 -8 -22 -10 -22 -5 0 6 -4 11 -10 11 -6 0 -10 -33 -10
-80 0 -47 4 -80 10 -80 6 0 10 20 10 45 0 64 17 97 49 93 25 -3 26 -6 29 -70
2 -52 6 -68 17 -68 12 0 15 14 15 59 0 62 14 86 47 79 14 -3 19 -16 23 -67 7
-84 30 -97 30 -17 0 95 -33 136 -83 103 -20 -13 -26 -13 -42 -1 -24 18 -35 18
-63 -2z"/>
<path d="M8760 313 c-8 -3 -25 -15 -37 -26 -49 -45 -12 -137 55 -137 31 0 82
33 70 46 -4 4 -13 2 -20 -3 -29 -23 -55 -23 -84 -1 l-29 23 75 5 c73 5 75 6
72 30 -5 44 -61 79 -102 63z m62 -40 c29 -26 21 -33 -37 -33 -38 0 -55 4 -55
13 0 36 59 50 92 20z"/>
<path d="M9032 304 c-13 -9 -22 -11 -22 -5 0 6 -4 11 -10 11 -6 0 -10 -33 -10
-80 0 -47 4 -80 10 -80 6 0 10 23 10 51 0 60 13 89 40 89 11 0 20 4 20 9 0 18
-17 20 -38 5z"/>
<path d="M5830 252 c0 -87 34 -122 91 -92 13 7 19 7 19 0 0 -5 7 -10 15 -10
12 0 15 16 15 80 0 64 -3 80 -15 80 -11 0 -15 -13 -15 -53 0 -41 -5 -58 -19
-71 -43 -39 -81 14 -69 94 3 20 0 30 -9 30 -9 0 -13 -16 -13 -58z"/>
<path d="M220 260 l0 -30 1790 0 1790 0 0 30 0 30 -1790 0 -1790 0 0 -30z"/>
</g>
</svg>
