<?xml version="1.0" encoding="UTF-8"?>
<svg version="1.1" xmlns="http://www.w3.org/2000/svg" width="1920" height="1080">
<path d="M0 0 C633.6 0 1267.2 0 1920 0 C1920 356.4 1920 712.8 1920 1080 C1286.4 1080 652.8 1080 0 1080 C0 723.6 0 367.2 0 0 Z " fill="#FEFEFE" transform="translate(0,0)"/>
<path d="M0 0 C13.58102576 10.52779761 23.43496226 23.04105654 27 40 C27.3876302 43.8249451 27.43156169 47.59550712 27.375 51.4375 C27.36412354 52.4473999 27.35324707 53.4572998 27.34204102 54.49780273 C26.83647474 78.14113424 14.43201186 93.89961428 -1.671875 109.83984375 C-3.60770241 111.63600576 -5.57723073 113.35604236 -7.58105469 115.07446289 C-12.27081426 119.17328308 -16.65181252 123.54311639 -21.03125 127.96875 C-21.86660278 128.8078894 -22.70195557 129.64702881 -23.56262207 130.51159668 C-26.21087086 133.171969 -28.85584406 135.83556013 -31.5 138.5 C-34.98662601 142.01337273 -38.47664926 145.52331971 -41.96875 149.03125 C-42.75544067 149.82623901 -43.54213135 150.62122803 -44.35266113 151.44030762 C-47.78319268 154.88586045 -51.22765743 158.25063522 -54.91796875 161.41796875 C-59.98376126 165.77940642 -64.64071708 170.53570052 -69.34375 175.28125 C-70.32176419 176.26368378 -71.30008251 177.24581488 -72.27868652 178.22766113 C-75.35531395 181.31560571 -78.42796436 184.40748814 -81.5 187.5 C-85.06553903 191.08930463 -88.63277928 194.67688508 -92.20429993 198.26023865 C-93.61758629 199.67991157 -95.02777111 201.10266999 -96.43786621 202.5255127 C-100.9335852 207.03821307 -105.47343455 211.4184469 -110.32373047 215.54981995 C-112.8428686 217.72918538 -115.1609211 220.06593389 -117.5 222.4375 C-118.3559375 223.30246094 -119.211875 224.16742187 -120.09375 225.05859375 C-120.7228125 225.69925781 -121.351875 226.33992187 -122 227 C-128.18757562 224.99361207 -132.04146361 220.44341278 -136.50195312 215.9440918 C-137.98356048 214.45403329 -139.48272889 212.98349927 -140.984375 211.51367188 C-148.68012925 203.87530783 -155.03540002 196.48073248 -155.25 185.25 C-154.99868293 172.9175122 -146.68013217 163.60235841 -138.375 155.125 C-136.10290829 152.98414697 -133.76810204 150.93723849 -131.39453125 148.91015625 C-126.46571487 144.60876733 -121.89979493 139.97220685 -117.3125 135.3125 C-115.66518018 133.63954096 -114.01551414 131.96888827 -112.36328125 130.30078125 C-111.28494019 129.20503784 -111.28494019 129.20503784 -110.18481445 128.0871582 C-108 126 -108 126 -105.3605957 123.890625 C-98.46933365 118.37134345 -92.68056087 109.43164619 -91.5859375 100.6953125 C-90.96840482 89.51110953 -94.29966864 81.11696861 -101.82519531 72.70800781 C-104.92282642 69.42328557 -108.17005548 66.30171529 -111.4375 63.1875 C-112.56325528 62.09193801 -113.68761358 60.99493867 -114.81054688 59.89648438 C-117.52461109 57.2475436 -120.25660355 54.61853654 -123 52 C-121.54231089 48.65596901 -119.69773128 46.43508525 -117.13964844 43.84912109 C-116.3441156 43.04082855 -115.54858276 42.23253601 -114.72894287 41.39974976 C-113.43225677 40.09972519 -113.43225677 40.09972519 -112.109375 38.7734375 C-111.21317444 37.87058014 -110.31697388 36.96772278 -109.39361572 36.0375061 C-107.48962036 34.12337761 -105.58347495 32.21168359 -103.67382812 30.30322266 C-101.73908075 28.36863653 -99.81149019 26.42737355 -97.890625 24.47900391 C-70.90168366 -2.8909976 -37.13376108 -25.57682523 0 0 Z " fill="#2878B9" transform="translate(1696,424)"/>
<path d="M0 0 C13.86 0 27.72 0 42 0 C42 69.3 42 138.6 42 210 C28.14 210 14.28 210 0 210 C-0.33 205.71 -0.66 201.42 -1 197 C-2.2375 198.216875 -3.475 199.43375 -4.75 200.6875 C-18.01337076 212.45171425 -35.59986645 212.87823872 -52.43115234 212.1953125 C-57.50210732 211.80976185 -61.55860193 210.38464326 -66 208 C-66.89203125 207.5875 -67.7840625 207.175 -68.703125 206.75 C-83.68967686 199.3823097 -94.32350757 186.5714741 -100 171 C-102.60361912 163.19075379 -103.54960495 155.96725097 -103.5 147.75 C-103.49500488 146.65679443 -103.49000977 145.56358887 -103.48486328 144.43725586 C-103.09959188 126.47696572 -95.30410593 111.94018249 -83 99 C-71.31145486 89.10108857 -57.5028239 83.39511941 -42.1875 83.5625 C-40.74673096 83.57168457 -40.74673096 83.57168457 -39.27685547 83.58105469 C-31.56178364 83.75004531 -25.13564051 84.9327396 -18 88 C-17.26007813 88.28875 -16.52015625 88.5775 -15.7578125 88.875 C-9.59362475 91.56133863 -6.35763449 95.23765823 -1 100 C-0.67 67 -0.34 34 0 0 Z " fill="#147CC5" transform="translate(334,395)"/>
<path d="M0 0 C13.86 0 27.72 0 42 0 C42.33 33 42.66 66 43 100 C46.465 96.535 46.465 96.535 50 93 C64.19424229 83.84296238 81.96751764 81.44004811 98.5 84.6875 C101.45621049 85.61131578 104.19128012 86.6977011 107 88 C107.9075 88.40089844 108.815 88.80179687 109.75 89.21484375 C125.18673167 96.77971936 135.86513024 110.17967652 142 126 C142.48146484 127.2065625 142.48146484 127.2065625 142.97265625 128.4375 C148.04286759 143.53022212 146.17030489 162.12386161 139.25 176.1875 C136.32359261 181.86337534 133.29100476 187.2310625 129 192 C128.00033203 193.11955078 128.00033203 193.11955078 126.98046875 194.26171875 C117.99501829 203.78220479 105.66049033 211.36470216 92.29614258 212.16113281 C89.13482057 212.20688354 85.97412498 212.2352519 82.8125 212.25 C81.72646484 212.270625 80.64042969 212.29125 79.52148438 212.3125 C67.54292878 212.37005462 56.27217638 209.17924814 46.97265625 201.27734375 C45.59347755 199.9046553 44.28627906 198.46010056 43 197 C42.505 203.435 42.505 203.435 42 210 C28.14 210 14.28 210 0 210 C0 140.7 0 71.4 0 0 Z " fill="#214FA2" transform="translate(1244,395)"/>
<path d="M0 0 C12.12798602 11.44589079 20.74088456 25.80558144 21.56640625 42.6875 C21.61598021 44.89549798 21.64716116 47.1039838 21.66015625 49.3125 C21.66660156 50.35374023 21.67304687 51.39498047 21.6796875 52.46777344 C21.39748592 69.5789579 14.2015486 85.42761858 2.16015625 97.5625 C-10.64903784 108.65803163 -22.7122302 113.96739329 -39.58984375 113.875 C-40.65807373 113.86936035 -41.72630371 113.8637207 -42.8269043 113.85791016 C-58.41869387 113.6173586 -69.67937081 109.72297294 -80.83984375 98.5625 C-81.16984375 125.9525 -81.49984375 153.3425 -81.83984375 181.5625 C-95.69984375 181.5625 -109.55984375 181.5625 -123.83984375 181.5625 C-123.83984375 117.5425 -123.83984375 53.5225 -123.83984375 -12.4375 C-109.97984375 -12.4375 -96.11984375 -12.4375 -81.83984375 -12.4375 C-81.34484375 -5.5075 -81.34484375 -5.5075 -80.83984375 1.5625 C-79.60234375 0.36625 -78.36484375 -0.83 -77.08984375 -2.0625 C-55.21022563 -21.37408782 -21.31855168 -18.29817916 0 0 Z " fill="#186EB7" transform="translate(532.83984375,493.4375)"/>
<path d="M0 0 C0.93070313 0.42410156 1.86140625 0.84820312 2.8203125 1.28515625 C9.87747145 4.81373572 15.43192536 9.45163536 21 15 C21.82951172 15.79470703 21.82951172 15.79470703 22.67578125 16.60546875 C26.24566625 20.34855571 28.70656877 24.74096113 31.1875 29.25 C31.52088379 29.84570801 31.85426758 30.44141602 32.19775391 31.05517578 C39.58694281 45.03401881 40.78755062 63.14476562 36.78125 78.35546875 C31.75052211 94.19253887 21.75054257 108.98394152 6.87011719 116.88891602 C-3.46655285 122.17033454 -12.71758435 124.54903727 -24.375 124.4375 C-25.48045166 124.42992676 -26.58590332 124.42235352 -27.72485352 124.41455078 C-35.52009111 124.25665213 -41.99366273 123.64913399 -49 120 C-50.36125 119.29423828 -50.36125 119.29423828 -51.75 118.57421875 C-56.72825417 115.77395078 -59.84224058 113.15775942 -64 109 C-64.33 136.39 -64.66 163.78 -65 192 C-78.86 192 -92.72 192 -107 192 C-107 127.98 -107 63.96 -107 -2 C-93.14 -2 -79.28 -2 -65 -2 C-64.505 4.93 -64.505 4.93 -64 12 C-62.7625 10.80375 -61.525 9.6075 -60.25 8.375 C-44.60262789 -5.43582609 -19.0092122 -8.84341611 0 0 Z " fill="#186EB7" transform="translate(688,483)"/>
<path d="M0 0 C13.15561677 11.89292637 21.50212295 27.37406092 22.52954102 45.21289062 C22.9432073 56.82993444 21.99700372 66.44681963 17.17407227 77.08789062 C16.72805664 78.08046875 16.28204102 79.07304688 15.82250977 80.09570312 C12.3406093 87.07895601 7.66416338 92.58838255 2.17407227 98.08789062 C1.53598633 98.73757813 0.89790039 99.38726563 0.24047852 100.05664062 C-10.97916001 110.69313785 -25.24869215 114.62736956 -40.32592773 114.46289062 C-41.3894043 114.47449219 -42.45288086 114.48609375 -43.54858398 114.49804688 C-52.69187086 114.4643906 -60.52652599 112.70256159 -68.57592773 108.27539062 C-69.43702148 107.81519531 -70.29811523 107.355 -71.18530273 106.88085938 C-73.82592773 105.08789062 -73.82592773 105.08789062 -79.82592773 99.08789062 C-80.15592773 126.47789062 -80.48592773 153.86789062 -80.82592773 182.08789062 C-94.68592773 182.08789062 -108.54592773 182.08789062 -122.82592773 182.08789062 C-122.82592773 118.06789063 -122.82592773 54.04789063 -122.82592773 -11.91210938 C-108.96592773 -11.91210938 -95.10592773 -11.91210938 -80.82592773 -11.91210938 C-80.33092773 -4.98210937 -80.33092773 -4.98210937 -79.82592773 2.08789062 C-78.58842773 0.89164062 -77.35092773 -0.30460937 -76.07592773 -1.53710938 C-54.8684115 -20.25548051 -20.89564749 -17.96117318 0 0 Z " fill="#2661A7" transform="translate(875.825927734375,492.912109375)"/>
<path d="M0 0 C0.98210449 0.00563965 1.96420898 0.0112793 2.97607422 0.01708984 C9.8039007 0.13170019 15.90428652 0.61607862 22.25 3.3125 C23.26320313 3.73789062 24.27640625 4.16328125 25.3203125 4.6015625 C31.88163278 7.61622317 36.48431605 10.89695006 41.25 16.3125 C41.745 9.8775 41.745 9.8775 42.25 3.3125 C56.11 3.3125 69.97 3.3125 84.25 3.3125 C84.25 43.9025 84.25 84.4925 84.25 126.3125 C70.39 126.3125 56.53 126.3125 42.25 126.3125 C41.92 122.0225 41.59 117.7325 41.25 113.3125 C40.63125 114.01375 40.0125 114.715 39.375 115.4375 C27.6469729 127.13230323 12.62255887 128.68511197 -3.06860352 128.76782227 C-19.25847464 128.53199618 -31.12223296 121.64672331 -42.875 110.75 C-55.89190716 97.2017905 -61.55684847 79.99996124 -61.34204102 61.46923828 C-60.62784684 43.51280269 -52.79854659 27.67318391 -39.75 15.3125 C-27.98326171 5.37885892 -15.42604349 -0.09183731 0 0 Z " fill="#2661A7" transform="translate(978.75,478.6875)"/>
<path d="M0 0 C13.53 0 27.06 0 41 0 C41 44.22 41 88.44 41 134 C41.66 134 42.32 134 43 134 C43.22558594 133.47535156 43.45117188 132.95070313 43.68359375 132.41015625 C45.46620971 129.14643505 47.74790352 126.33212474 50.0625 123.4375 C50.55637207 122.81472168 51.05024414 122.19194336 51.55908203 121.55029297 C55.17562727 117.00134806 58.83925321 112.49182264 62.53125 108.00390625 C65.657706 104.19972166 68.7676829 100.38232293 71.875 96.5625 C72.43493652 95.87559082 72.99487305 95.18868164 73.57177734 94.48095703 C74.1023877 93.82853027 74.63299805 93.17610352 75.1796875 92.50390625 C75.65132324 91.92455322 76.12295898 91.3452002 76.60888672 90.74829102 C78.05914726 89.00027609 78.05914726 89.00027609 79.26731873 86.91911316 C81 85 81 85 83.33488464 84.51898193 C84.25199722 84.52786438 85.1691098 84.53674683 86.11401367 84.54589844 C87.15486618 84.54620056 88.19571869 84.54650269 89.26811218 84.54681396 C90.95104118 84.57778168 90.95104118 84.57778168 92.66796875 84.609375 C93.81791824 84.61503479 94.96786774 84.62069458 96.15266418 84.62652588 C99.8313634 84.64894526 103.50909437 84.6991542 107.1875 84.75 C109.67902241 84.7700577 112.17056006 84.78830974 114.66210938 84.8046875 C120.77507084 84.84882834 126.88746626 84.91579651 133 85 C132.07499699 86.26290106 131.14577038 87.52270908 130.21484375 88.78125 C129.69784912 89.48314453 129.18085449 90.18503906 128.64819336 90.90820312 C126.54835536 93.57320267 124.20146078 95.88052822 121.76953125 98.23828125 C119.38068595 100.61657977 117.20872023 103.1557548 115.0078125 105.70703125 C112.58927388 108.46905882 110.11108624 111.17397712 107.625 113.875 C101.88216477 120.11810608 96.20706013 126.42014466 90.546875 132.73828125 C89.74765625 133.62902344 88.9484375 134.51976562 88.125 135.4375 C87.40570312 136.24058594 86.68640625 137.04367187 85.9453125 137.87109375 C84.33761943 139.63051689 82.70343512 141.33406188 81 143 C82.65057803 147.09185212 85.57174156 149.97875729 88.5625 153.125 C89.65676393 154.29248727 90.75050985 155.46046026 91.84375 156.62890625 C92.38257813 157.2027002 92.92140625 157.77649414 93.4765625 158.36767578 C95.53482148 160.5730475 97.55116814 162.81432652 99.5625 165.0625 C102.8505372 168.73106954 106.16673766 172.37254178 109.5 176 C113.58240851 180.44322211 117.63306125 184.91322245 121.65625 189.41015625 C123.41226438 191.35055214 125.18150145 193.27235769 126.96875 195.18359375 C127.47212891 195.72435547 127.97550781 196.26511719 128.49414062 196.82226562 C129.47844881 197.87806701 130.46658361 198.93031722 131.45898438 199.97851562 C133.64258506 202.32596513 134.97203514 203.91610543 136 207 C136.66 207 137.32 207 138 207 C138 207.66 138 208.32 138 209 C130.65468796 209.33154617 123.31132193 209.55803156 115.96020508 209.71411133 C113.46402921 209.77920929 110.96834383 209.8677231 108.47387695 209.98071289 C86.60330829 210.94604057 86.60330829 210.94604057 81.03955078 206.29223633 C78.10986505 203.17527094 76.07488951 199.72597767 74 196 C72.9990827 194.69619488 71.97396798 193.40984483 70.90625 192.16015625 C70.1121875 191.13792969 69.318125 190.11570312 68.5 189.0625 C67.58596835 187.89060094 66.67190488 186.71872669 65.7578125 185.546875 C65.30438477 184.96357422 64.85095703 184.38027344 64.38378906 183.77929688 C62.05480465 180.78465355 59.71550911 177.79813883 57.375 174.8125 C56.96830078 174.29115479 56.56160156 173.76980957 56.14257812 173.23266602 C51.84594384 167.74804945 47.41579536 162.39708322 43 157 C42.67 174.16 42.34 191.32 42 209 C28.14 209 14.28 209 0 209 C0 140.03 0 71.06 0 0 Z " fill="#2150A2" transform="translate(1097,396)"/>
<path d="M0 0 C5.46236632 4.42743371 10.29927304 9.45813823 15.19116211 14.49707031 C17.24320391 16.59601959 19.29977108 18.69045796 21.35913086 20.78222656 C22.09780899 21.53385826 22.09780899 21.53385826 22.85140991 22.30067444 C26.16001844 25.64486503 29.58588817 28.77848626 33.16503906 31.82739258 C36.43286799 34.68386819 39.45733811 37.78325467 42.50366211 40.87207031 C43.13530273 41.50822266 43.76694336 42.144375 44.41772461 42.79980469 C45.94871984 44.34239837 47.47653878 45.88814346 49.00366211 47.43457031 C47.56425256 50.72028002 45.78450191 52.91120572 43.26342773 55.44946289 C42.49502563 56.227397 41.72662354 57.00533112 40.93493652 57.80683899 C39.68504944 59.05535896 39.68504944 59.05535896 38.40991211 60.32910156 C37.54861694 61.19468185 36.68732178 62.06026215 35.79992676 62.95207214 C33.97325981 64.78448379 32.14396373 66.61427773 30.31225586 68.44165039 C27.53344388 71.21732219 24.76815894 74.00597811 22.00366211 76.79589844 C20.2232245 78.5786112 18.44199877 80.36053727 16.65991211 82.14160156 C15.8428479 82.96787552 15.02578369 83.79414948 14.18395996 84.64546204 C8.84601804 89.94150865 3.26806471 94.29006143 -2.99633789 98.43457031 C-4.22605301 99.30879936 -5.45533093 100.18364432 -6.68383789 101.05957031 C-19.8815609 109.21031131 -37.07471064 111.34280368 -52.18383789 108.74707031 C-69.33245821 104.63026577 -82.83654465 94.33634776 -92.30883789 79.55957031 C-100.2005152 65.68337105 -102.73820889 47.51678943 -98.87133789 31.91503906 C-92.71739327 14.46970497 -81.33532726 0.76466555 -64.55883789 -7.44042969 C-42.65111459 -16.51110595 -19.02811863 -14.10253122 0 0 Z " fill="#236CB5" transform="translate(1522.996337890625,426.5654296875)"/>
<path d="M0 0 C232.32 0 464.64 0 704 0 C704 2.31 704 4.62 704 7 C471.68 7 239.36 7 0 7 C0 4.69 0 2.38 0 0 Z " fill="#137CC5" transform="translate(197,710)"/>
<path d="M0 0 C6.9402974 5.16970184 12.44035755 12.24726448 13.8125 20.9375 C14.75866781 32.41416506 12.09177799 40.27016639 5.125 49.4140625 C-0.70529082 55.77617039 -8.37114655 59.40798845 -16.93359375 60.1875 C-27.00450738 60.59803406 -33.87620793 58.19387881 -41.5625 51.6875 C-45.60960003 47.82435906 -48.31463773 44.19983583 -50.1875 38.9375 C-50.54070312 37.99777344 -50.89390625 37.05804688 -51.2578125 36.08984375 C-53.56188385 28.2772993 -53.06880326 19.74559719 -49.63671875 12.3515625 C-44.66819654 4.07515622 -38.32408016 -1.81024051 -29.1875 -5.0625 C-18.65968702 -7.57684671 -9.10890367 -5.85178054 0 0 Z " fill="#4375BD" transform="translate(1593.1875,357.0625)"/>
<path d="M0 0 C8.45971302 5.50371291 12.83493638 11.75090288 16.0234375 21.31640625 C17.13222206 31.43802533 14.8841029 40.54401621 8.7109375 48.75390625 C1.16520927 55.94867037 -6.99522962 58.92311957 -17.390625 58.69921875 C-24.40427032 57.66094497 -31.15281348 53.35941659 -35.9765625 48.31640625 C-41.7608653 39.18401288 -43.89918451 32.13381504 -42.9765625 21.31640625 C-40.99320031 12.61235181 -35.82556313 5.91948311 -28.7265625 0.64453125 C-20.06971832 -4.42427883 -8.89808981 -4.74675051 0 0 Z " fill="#FCFDFE" transform="translate(493.9765625,515.68359375)"/>
<path d="M0 0 C8.00518204 5.20800453 13.34983137 11.35204524 15.62890625 20.8359375 C17.20927318 30.77190781 15.08869753 38.61827647 9.859375 47.234375 C5.67564273 52.76999355 -1.24588544 56.89260918 -7.9765625 58.31640625 C-17.30399006 59.47189355 -24.18252764 57.55483028 -31.9765625 52.31640625 C-38.26531038 46.8989909 -42.475494 38.91851638 -43.21484375 30.65234375 C-43.45783209 20.95838793 -41.51811536 14.06854397 -35.3515625 6.50390625 C-25.99433779 -3.19733407 -12.36869605 -6.59817057 0 0 Z " fill="#FCFDFE" transform="translate(317.9765625,515.68359375)"/>
<path d="M0 0 C7.30940336 5.42984249 12.26191864 12.73770139 14.1875 21.625 C15.30237432 30.26111596 12.66176171 39.06940161 8.125 46.4375 C4.00748561 51.67446362 -3.18824653 56.52741414 -9.8125 57.625 C-19.14221004 58.73501068 -26.01654359 56.85314881 -33.8125 51.625 C-38.96267987 47.28147481 -41.36807942 41.77992566 -43.8125 35.625 C-44.1425 34.965 -44.4725 34.305 -44.8125 33.625 C-46.02911694 22.44444434 -43.89387712 14.46198674 -37.20703125 5.46484375 C-27.9424897 -4.89999964 -11.92309641 -6.90284529 0 0 Z " fill="#FCFDFE" transform="translate(667.8125,516.375)"/>
<path d="M0 0 C0.60199219 0.38929688 1.20398438 0.77859375 1.82421875 1.1796875 C7.97144883 5.68676725 12.10591118 12.51390237 13.33398438 20.04931641 C14.35724901 30.42043206 13.08334438 38.76958267 6.35546875 47.015625 C1.08884336 52.67457237 -4.88337739 56.54831551 -12.69921875 57.23828125 C-22.85509999 57.49051882 -29.71647124 54.97777502 -37.20703125 48.0703125 C-43.71514134 40.55550128 -45.3547851 32.23450617 -45.28515625 22.5859375 C-44.89596614 17.69173864 -43.48948588 14.17507528 -41 10 C-40.4225 8.948125 -39.845 7.89625 -39.25 6.8125 C-30.08303564 -4.64620544 -12.45131257 -8.93796252 0 0 Z " fill="#FDFDFE" transform="translate(840,517)"/>
<path d="M0 0 C0.57105469 0.40992188 1.14210938 0.81984375 1.73046875 1.2421875 C2.33246094 1.63148438 2.93445312 2.02078125 3.5546875 2.421875 C9.32019666 6.64908128 12.55659641 12.52085077 14.73046875 19.2421875 C16.09120079 29.24512609 15.06497393 38.20746479 9.1171875 46.48828125 C3.70552211 53.0278769 -2.34211397 57.6825172 -11 58.5 C-21.08126149 58.88331793 -28.07199456 56.14066445 -35.4765625 49.3125 C-41.98413869 41.79830527 -43.63027991 33.47336868 -43.55078125 23.82421875 C-43.16563294 18.91892702 -41.81223046 15.40523425 -39.26953125 11.2421875 C-38.89570312 10.60667969 -38.521875 9.97117187 -38.13671875 9.31640625 C-34.58763577 3.82825475 -30.18195143 0.49036758 -24.20703125 -2.0703125 C-16.14277527 -3.47835719 -7.23411761 -4.47312177 0 0 Z " fill="#FDFDFE" transform="translate(1329.26953125,515.7578125)"/>
<path d="M0 0 C0.70181396 0.00572021 1.40362793 0.01144043 2.12670898 0.01733398 C11.01091189 0.32241067 16.67321858 4.29097654 22.62109375 10.59765625 C28.84305424 18.46803225 29.89303077 26.70212174 29.125 36.5 C27.2691754 45.14188204 23.1866001 52.07144993 15.8125 57.06640625 C8.08855238 61.52546154 0.85646227 62.61577972 -8.01953125 61.14453125 C-15.41861805 58.89918719 -21.52692149 53.17182748 -25.62109375 46.76953125 C-29.79969877 37.99801194 -30.76542552 28.43937328 -27.80078125 19.125 C-24.17263491 11.17289842 -19.40097839 5.79280103 -11.61328125 1.84765625 C-7.64386442 0.41667526 -4.17084571 -0.03968407 0 0 Z " fill="#FDFDFE" transform="translate(991.875,512.5)"/>
<path d="M0 0 C2 1 2 1 3.0703125 3.87109375 C3.41835938 5.04800781 3.76640625 6.22492187 4.125 7.4375 C4.47820313 8.61183594 4.83140625 9.78617188 5.1953125 10.99609375 C6 14 6 14 6 16 C11.94 16 17.88 16 24 16 C21.01439924 18.98560076 18.69975383 21.01780635 15.25 23.25 C14.45078125 23.77078125 13.6515625 24.2915625 12.828125 24.828125 C12.22484375 25.21484375 11.6215625 25.6015625 11 26 C11.12117187 26.54527344 11.24234375 27.09054687 11.3671875 27.65234375 C13.18359375 35.82617188 13.18359375 35.82617188 15 44 C13.58235006 43.06398754 12.16592432 42.1261208 10.75 41.1875 C9.96109375 40.66542969 9.1721875 40.14335938 8.359375 39.60546875 C6 38 6 38 3.953125 36.23828125 C2.11899189 34.81925582 2.11899189 34.81925582 0.109375 35.05859375 C-2.81626635 36.36429665 -5.18937562 38.14203171 -7.75 40.0625 C-8.73484375 40.79597656 -9.7196875 41.52945313 -10.734375 42.28515625 C-11.48203125 42.85105469 -12.2296875 43.41695312 -13 44 C-14 42 -14 42 -13.22265625 39.3203125 C-12.83980469 38.26585937 -12.45695313 37.21140625 -12.0625 36.125 C-10.70513751 32.37959977 -10 30.0314602 -10 26 C-11.97694132 24.24958321 -13.83724262 22.79087132 -16 21.3125 C-18.01567008 19.89381329 -20.01229882 18.45823911 -22 17 C-22 16.67 -22 16.34 -22 16 C-16.39 16 -10.78 16 -5 16 C-4.54625 14.288125 -4.0925 12.57625 -3.625 10.8125 C-2.63721296 7.08584888 -1.49480306 3.55503162 0 0 Z " fill="#2E68AA" transform="translate(940,688)"/>
<path d="M0 0 C2.49936244 2.49936244 3.03723753 4.64808008 4.125 8 C4.47820312 9.0725 4.83140625 10.145 5.1953125 11.25 C6 14 6 14 6 16 C11.94 16 17.88 16 24 16 C21.01439924 18.98560076 18.69975383 21.01780635 15.25 23.25 C14.45078125 23.77078125 13.6515625 24.2915625 12.828125 24.828125 C12.22484375 25.21484375 11.6215625 25.6015625 11 26 C11.64844086 30.19283118 12.51216646 34.26499921 13.5625 38.375 C13.83191406 39.43460938 14.10132813 40.49421875 14.37890625 41.5859375 C14.58386719 42.38257813 14.78882813 43.17921875 15 44 C13.58235006 43.06398754 12.16592432 42.1261208 10.75 41.1875 C9.96109375 40.66542969 9.1721875 40.14335938 8.359375 39.60546875 C6 38 6 38 3.953125 36.23828125 C2.11899189 34.81925582 2.11899189 34.81925582 0.109375 35.05859375 C-2.81626635 36.36429665 -5.18937562 38.14203171 -7.75 40.0625 C-8.73484375 40.79597656 -9.7196875 41.52945313 -10.734375 42.28515625 C-11.48203125 42.85105469 -12.2296875 43.41695312 -13 44 C-14.55544861 40.88910278 -13.13029553 38.78745823 -12.0625 35.5625 C-10.47400855 30.87187252 -10.47400855 30.87187252 -10 26 C-12.13867397 24.32548879 -14.225963 22.84059557 -16.5 21.375 C-18.68501353 19.93952334 -20.84729659 18.48441911 -23 17 C-23 16.67 -23 16.34 -23 16 C-17.06 16 -11.12 16 -5 16 C-4.54625 14.288125 -4.0925 12.57625 -3.625 10.8125 C-2.63721296 7.08584888 -1.49480306 3.55503162 0 0 Z " fill="#2E67AA" transform="translate(1051,688)"/>
<path d="M0 0 C2.49936244 2.49936244 3.03723753 4.64808008 4.125 8 C4.47820313 9.0725 4.83140625 10.145 5.1953125 11.25 C6 14 6 14 6 16 C11.94 16 17.88 16 24 16 C21.01439924 18.98560076 18.69975383 21.01780635 15.25 23.25 C14.45078125 23.77078125 13.6515625 24.2915625 12.828125 24.828125 C12.22484375 25.21484375 11.6215625 25.6015625 11 26 C11.64844086 30.19283118 12.51216646 34.26499921 13.5625 38.375 C13.83191406 39.43460938 14.10132813 40.49421875 14.37890625 41.5859375 C14.58386719 42.38257813 14.78882813 43.17921875 15 44 C13.58235006 43.06398754 12.16592432 42.1261208 10.75 41.1875 C9.96109375 40.66542969 9.1721875 40.14335938 8.359375 39.60546875 C6 38 6 38 3.953125 36.23828125 C2.11899189 34.81925582 2.11899189 34.81925582 0.109375 35.05859375 C-2.81626635 36.36429665 -5.18937562 38.14203171 -7.75 40.0625 C-8.73484375 40.79597656 -9.7196875 41.52945313 -10.734375 42.28515625 C-11.48203125 42.85105469 -12.2296875 43.41695312 -13 44 C-14.55544861 40.88910278 -13.13029553 38.78745823 -12.0625 35.5625 C-10.47400855 30.87187252 -10.47400855 30.87187252 -10 26 C-12.13867397 24.32548879 -14.225963 22.84059557 -16.5 21.375 C-18.68501353 19.93952334 -20.84729659 18.48441911 -23 17 C-23 16.67 -23 16.34 -23 16 C-17.06 16 -11.12 16 -5 16 C-4.54625 14.288125 -4.0925 12.57625 -3.625 10.8125 C-2.63721296 7.08584888 -1.49480306 3.55503162 0 0 Z " fill="#2E67AA" transform="translate(997,688)"/>
<path d="M0 0 C1.32 0 2.64 0 4 0 C4 5.94 4 11.88 4 18 C4.99 17.34 5.98 16.68 7 16 C11.50282411 15.27482608 14.99285654 15.39999964 18.9375 17.75 C21.78206465 20.85316144 22.82909642 22.68973926 23.375 26.875 C22.89861498 30.84487514 21.46959574 32.89536536 19 36 C15.877998 38.08133467 15.06733011 38.2737822 11.5 38.25 C10.33984375 38.25773438 10.33984375 38.25773438 9.15625 38.265625 C7 38 7 38 4 36 C4 36.66 4 37.32 4 38 C2.68 38 1.36 38 0 38 C0 25.46 0 12.92 0 0 Z " fill="#315CA9" transform="translate(1566,687)"/>
<path d="M0 0 C1.32 0 2.64 0 4 0 C4 5.94 4 11.88 4 18 C4.99 17.34 5.98 16.68 7 16 C11.50282411 15.27482608 14.99285654 15.39999964 18.9375 17.75 C21.78206465 20.85316144 22.82909642 22.68973926 23.375 26.875 C22.89861498 30.84487514 21.46959574 32.89536536 19 36 C15.877998 38.08133467 15.06733011 38.2737822 11.5 38.25 C10.33984375 38.25773438 10.33984375 38.25773438 9.15625 38.265625 C7 38 7 38 4 36 C4 36.66 4 37.32 4 38 C2.68 38 1.36 38 0 38 C0 25.46 0 12.92 0 0 Z " fill="#315CA9" transform="translate(1176,687)"/>
<path d="M0 0 C2.58297781 2.18991597 4.48415844 3.96831688 6 7 C6.40251462 12.23269006 5.80083881 15.53940485 3 20 C-0.122002 22.08133467 -0.93266989 22.2737822 -4.5 22.25 C-5.66015625 22.25773438 -5.66015625 22.25773438 -6.84375 22.265625 C-9 22 -9 22 -12 20 C-12.33 24.62 -12.66 29.24 -13 34 C-13.99 34 -14.98 34 -16 34 C-16 22.78 -16 11.56 -16 0 C-15.01 0 -14.02 0 -13 0 C-12.67 0.66 -12.34 1.32 -12 2 C-11.319375 1.484375 -10.63875 0.96875 -9.9375 0.4375 C-6.05888778 -1.46054428 -4.12320575 -1.17805879 0 0 Z " fill="#2956A5" transform="translate(1267,703)"/>
<path d="M0 0 C0.99 0.66 1.98 1.32 3 2 C3.33 1.34 3.66 0.68 4 0 C4.99 0 5.98 0 7 0 C7 7.26 7 14.52 7 22 C6.01 22 5.02 22 4 22 C3.67 21.34 3.34 20.68 3 20 C2.01 20.66 1.02 21.32 0 22 C-3.06526351 22.54531842 -5.93408329 22.54325893 -9 22 C-12.21840301 19.45209761 -14.73534937 17.20831431 -15.23828125 13.01171875 C-15.36800555 8.94929982 -15.37432746 6.62833539 -13.25 3.0625 C-8.66070464 -1.14435408 -6.18355385 -1.34913902 0 0 Z " fill="#2B57A6" transform="translate(1303,703)"/>
<path d="M0 0 C0.99 0.66 1.98 1.32 3 2 C3.33 1.34 3.66 0.68 4 0 C4.99 0 5.98 0 7 0 C7 7.26 7 14.52 7 22 C6.01 22 5.02 22 4 22 C3.67 21.34 3.34 20.68 3 20 C2.01 20.66 1.02 21.32 0 22 C-3.06526351 22.54531842 -5.93408329 22.54325893 -9 22 C-12.21840301 19.45209761 -14.73534937 17.20831431 -15.23828125 13.01171875 C-15.36800555 8.94929982 -15.37432746 6.62833539 -13.25 3.0625 C-8.66070464 -1.14435408 -6.18355385 -1.34913902 0 0 Z " fill="#2B57A6" transform="translate(1151,703)"/>
<path d="M0 0 C3.6578218 2.03993908 5.66946174 3.50419262 8 7 C8 8.98 8 10.96 8 13 C1.73 13 -4.54 13 -11 13 C-9.35143175 17.12403473 -9.35143175 17.12403473 -6 19 C-1.65829096 18.9068565 -1.65829096 18.9068565 2 17 C3.66617115 16.95936168 5.33388095 16.957279 7 17 C3.25 21.875 3.25 21.875 1 23 C-3.539219 23.54399285 -6.9544269 23.62289461 -10.9375 21.25 C-13.78206465 18.14683856 -14.82909642 16.31026074 -15.375 12.125 C-14.77890258 7.15752153 -12.50345952 4.18694172 -8.625 1.125 C-5.39835874 -0.25784626 -3.48313618 -0.49759088 0 0 Z " fill="#305BA8" transform="translate(1618,702)"/>
<path d="M0 0 C3.6578218 2.03993908 5.66946174 3.50419262 8 7 C8 8.98 8 10.96 8 13 C1.73 13 -4.54 13 -11 13 C-9.35143175 17.12403473 -9.35143175 17.12403473 -6 19 C-1.65829096 18.9068565 -1.65829096 18.9068565 2 17 C3.66617115 16.95936168 5.33388095 16.957279 7 17 C3.25 21.875 3.25 21.875 1 23 C-3.539219 23.54399285 -6.9544269 23.62289461 -10.9375 21.25 C-13.78206465 18.14683856 -14.82909642 16.31026074 -15.375 12.125 C-14.77890258 7.15752153 -12.50345952 4.18694172 -8.625 1.125 C-5.39835874 -0.25784626 -3.48313618 -0.49759088 0 0 Z " fill="#305BA8" transform="translate(1368,702)"/>
<path d="M0 0 C3.6578218 2.03993908 5.66946174 3.50419262 8 7 C8 8.98 8 10.96 8 13 C1.73 13 -4.54 13 -11 13 C-6.94768935 19.19954682 -6.94768935 19.19954682 -2.875 19.5 C0.18736338 19.16682024 0.18736338 19.16682024 3 17 C5.1875 17.375 5.1875 17.375 7 18 C3.54069405 21.57461615 1.68740626 23.1565167 -3.3125 23.375 C-7.14506165 23.35031361 -7.82418398 23.13918768 -11 20.625 C-14.41313584 16.14525921 -14.69894059 12.53407752 -14 7 C-10.56417713 1.2327259 -6.66321886 -0.79958626 0 0 Z " fill="#2E5AA7" transform="translate(1493,702)"/>
<path d="M0 0 C3.5 0.75 3.5 0.75 6.5 2.75 C7.015625 2.234375 7.53125 1.71875 8.0625 1.1875 C10.5 -0.25 10.5 -0.25 14.0625 -0.1875 C17.5 0.75 17.5 0.75 19.203125 2.23046875 C21.18468096 6.08017838 20.81724676 9.7416448 20.6875 14 C20.66719727 15.26070312 20.66719727 15.26070312 20.64648438 16.546875 C20.61123464 18.61485938 20.5574302 20.68251271 20.5 22.75 C19.51 22.75 18.52 22.75 17.5 22.75 C17.43941406 21.61820313 17.37882812 20.48640625 17.31640625 19.3203125 C17.23200083 17.83852855 17.14735283 16.3567584 17.0625 14.875 C17.02318359 14.12863281 16.98386719 13.38226562 16.94335938 12.61328125 C16.78426376 8.55013136 16.78426376 8.55013136 15.5 4.75 C13.19 5.08 10.88 5.41 8.5 5.75 C8.17 11.36 7.84 16.97 7.5 22.75 C6.18 22.75 4.86 22.75 3.5 22.75 C3.43941406 21.53441406 3.37882812 20.31882812 3.31640625 19.06640625 C3.23201668 17.48175772 3.1473679 15.89712298 3.0625 14.3125 C3.02318359 13.51005859 2.98386719 12.70761719 2.94335938 11.88085938 C3.0945704 7.99760439 3.0945704 7.99760439 1.5 4.75 C-0.91537838 4.33282721 -0.91537838 4.33282721 -3.5 4.75 C-6.95806273 8.0914052 -6.97219839 11.34948523 -7.1875 16 C-7.28611328 17.89492188 -7.28611328 17.89492188 -7.38671875 19.828125 C-7.42410156 20.79234375 -7.46148438 21.7565625 -7.5 22.75 C-8.49 22.75 -9.48 22.75 -10.5 22.75 C-10.5 15.49 -10.5 8.23 -10.5 0.75 C-9.18 1.08 -7.86 1.41 -6.5 1.75 C-3.5 -0.25 -3.5 -0.25 0 0 Z " fill="#2E5AA8" transform="translate(1528.5,702.25)"/>
<path d="M0 0 C1.32 0 2.64 0 4 0 C4.33 4.29 4.66 8.58 5 13 C5.67546875 12.0615625 6.3509375 11.123125 7.046875 10.15625 C7.94724273 8.93700203 8.84832158 7.71827898 9.75 6.5 C10.1934375 5.87996094 10.636875 5.25992188 11.09375 4.62109375 C12.421875 2.84375 12.421875 2.84375 15 0 C16.32 0 17.64 0 19 0 C16.94564833 4.61957386 13.70694167 8.31122406 10.58203125 12.24609375 C8.81048898 14.82146229 8.81048898 14.82146229 8.9453125 17.42578125 C10.41895933 21.02257111 12.61635887 23.75541183 15.0625 26.75 C20 32.90671896 20 32.90671896 20 34 C17.83203125 34.4375 17.83203125 34.4375 15 34 C12.86169988 31.92124748 11.3103503 29.49077468 9.6875 27 C9.23310547 26.33226562 8.77871094 25.66453125 8.31054688 24.9765625 C7.1918275 23.32792342 6.09386962 21.66523065 5 20 C4.67 24.62 4.34 29.24 4 34 C2.68 34 1.36 34 0 34 C0 22.78 0 11.56 0 0 Z " fill="#345FAA" transform="translate(1103,691)"/>
<path d="M0 0 C4.0743356 0.84881992 5.54405875 2.30225596 8 5.625 C8.625 8.625 8.625 8.625 8 11.625 C5.51397551 14.98844489 4.08574477 16.42557749 -0.0625 17.1875 C-3.74345769 16.48263576 -4.87000351 15.7016616 -7 12.625 C-8.0625 9.1875 -8.0625 9.1875 -8 5.625 C-5.59686932 2.20235933 -4.11289267 0.85685264 0 0 Z " fill="#F4F6FA" transform="translate(1299,705.375)"/>
<path d="M0 0 C4.0743356 0.84881992 5.54405875 2.30225596 8 5.625 C8.625 8.625 8.625 8.625 8 11.625 C5.51397551 14.98844489 4.08574477 16.42557749 -0.0625 17.1875 C-3.74345769 16.48263576 -4.87000351 15.7016616 -7 12.625 C-8.0625 9.1875 -8.0625 9.1875 -8 5.625 C-5.59686932 2.20235933 -4.11289267 0.85685264 0 0 Z " fill="#F4F6FA" transform="translate(1147,705.375)"/>
<path d="M0 0 C3.65005579 0.69894685 4.79314611 1.54452045 6.9375 4.5625 C8 7.4375 8 7.4375 7.9375 10.5625 C5.875 13.9375 5.875 13.9375 2.9375 16.5625 C-0.0625 17.25 -0.0625 17.25 -3.0625 16.5625 C-6.38524404 14.10655875 -7.83868008 12.6368356 -8.6875 8.5625 C-7.63783559 3.52411085 -5.07009643 0.9312422 0 0 Z " fill="#F6F7FB" transform="translate(1262.0625,705.4375)"/>
<path d="M0 0 C3.32274404 2.45594125 4.77618008 3.9256644 5.625 8 C4.77618008 12.0743356 3.32274404 13.54405875 0 16 C-3.65126535 16.67064058 -5.23686002 16.48198314 -8.375 14.5 C-10.65416433 10.99359333 -10.81753559 8.07099353 -10 4 C-7.317936 -0.12625231 -4.78913194 -0.87963648 0 0 Z " fill="#F9FAFC" transform="translate(1580,706)"/>
<path d="M0 0 C3.32274404 2.45594125 4.77618008 3.9256644 5.625 8 C4.77618008 12.0743356 3.32274404 13.54405875 0 16 C-3.65126535 16.67064058 -5.23686002 16.48198314 -8.375 14.5 C-10.65416433 10.99359333 -10.81753559 8.07099353 -10 4 C-7.317936 -0.12625231 -4.78913194 -0.87963648 0 0 Z " fill="#F9FAFC" transform="translate(1190,706)"/>
<path d="M0 0 C0.99 0 1.98 0 3 0 C3.06058594 1.13179687 3.12117188 2.26359375 3.18359375 3.4296875 C3.26799917 4.91147145 3.35264717 6.3932416 3.4375 7.875 C3.47681641 8.62136719 3.51613281 9.36773438 3.55664062 10.13671875 C3.71573624 14.19986864 3.71573624 14.19986864 5 18 C8.43793339 17.81870185 8.43793339 17.81870185 12 17 C14.39768346 13.71895948 14.38748412 10.208598 14.625 6.25 C14.69976563 5.07953125 14.77453125 3.9090625 14.8515625 2.703125 C14.90054687 1.81109375 14.94953125 0.9190625 15 0 C16.32 0 17.64 0 19 0 C19 7.26 19 14.52 19 22 C17.68 22 16.36 22 15 22 C14.67 21.34 14.34 20.68 14 20 C13.34 20.66 12.68 21.32 12 22 C5.04426925 22.67313523 5.04426925 22.67313523 1.7578125 20.5546875 C-0.87523063 16.72799816 -0.43387156 13.27606924 -0.25 8.75 C-0.23195313 7.90953125 -0.21390625 7.0690625 -0.1953125 6.203125 C-0.14830798 4.13492605 -0.07656724 2.06731559 0 0 Z " fill="#2F5BA8" transform="translate(1215,703)"/>
<path d="M0 0 C1.32 0 2.64 0 4 0 C4.33 0.66 4.66 1.32 5 2 C5.66 1.34 6.32 0.68 7 0 C13.95573075 -0.67313523 13.95573075 -0.67313523 17.2421875 1.4453125 C19.87523063 5.27200184 19.43387156 8.72393076 19.25 13.25 C19.23195313 14.09046875 19.21390625 14.9309375 19.1953125 15.796875 C19.14830798 17.86507395 19.07656724 19.93268441 19 22 C18.01 22 17.02 22 16 22 C15.67 16.06 15.34 10.12 15 4 C8.49605901 3.26213615 8.49605901 3.26213615 6.10546875 5.546875 C4.62831726 8.8247942 4.47840674 11.66641431 4.3125 15.25 C4.24675781 16.51328125 4.18101563 17.7765625 4.11328125 19.078125 C4.07589844 20.04234375 4.03851562 21.0065625 4 22 C2.68 22 1.36 22 0 22 C0 14.74 0 7.48 0 0 Z " fill="#2E59A7" transform="translate(1392,703)"/>
<path d="M0 0 C0.99 0 1.98 0 3 0 C3.12406007 4.03825066 3.21455045 8.07575638 3.2746582 12.11547852 C3.29972617 13.48807102 3.33379082 14.86053102 3.37719727 16.23266602 C3.43817531 18.21050696 3.46361009 20.18934184 3.48828125 22.16796875 C3.51446533 23.35672607 3.54064941 24.5454834 3.56762695 25.77026367 C2.83466331 29.94074798 1.26379581 31.39621623 -2 34 C-4.67578125 34.48828125 -4.67578125 34.48828125 -7.3125 34.3125 C-8.19550781 34.26738281 -9.07851562 34.22226562 -9.98828125 34.17578125 C-10.98408203 34.08876953 -10.98408203 34.08876953 -12 34 C-12 32.68 -12 31.36 -12 30 C-10.01432292 30.09765625 -8.02864583 30.1953125 -6.04296875 30.29296875 C-3.31660094 29.90199822 -2.64985947 29.1959882 -1 27 C-0.49335383 24.09912345 -0.49335383 24.09912345 -0.48828125 20.80078125 C-0.45283203 19.59228516 -0.41738281 18.38378906 -0.38085938 17.13867188 C-0.35830078 15.87603516 -0.33574219 14.61339844 -0.3125 13.3125 C-0.27833984 12.03826172 -0.24417969 10.76402344 -0.20898438 9.45117188 C-0.12639216 6.30086897 -0.05727665 3.15084843 0 0 Z " fill="#2352A3" transform="translate(1460,691)"/>
<path d="M0 0 C0.99 0 1.98 0 3 0 C3 2.97 3 5.94 3 9 C4.98 9 6.96 9 9 9 C9 9.99 9 10.98 9 12 C7.02 12 5.04 12 3 12 C3 18.27 3 24.54 3 31 C2.01 31 1.02 31 0 31 C0 24.73 0 18.46 0 12 C-1.98 12 -3.96 12 -6 12 C-6 11.01 -6 10.02 -6 9 C-4.02 9 -2.04 9 0 9 C0 6.03 0 3.06 0 0 Z " fill="#2351A3" transform="translate(1331,694)"/>
<path d="M0 0 C2.475 0.495 2.475 0.495 5 1 C5.33 0.67 5.66 0.34 6 0 C7.99958364 -0.04080783 10.00045254 -0.04254356 12 0 C12 1.32 12 2.64 12 4 C11.030625 4.12375 10.06125 4.2475 9.0625 4.375 C7.5465625 4.684375 7.5465625 4.684375 6 5 C4.47893366 8.04213267 4.62570662 11.28047572 4.4375 14.625 C4.39431641 15.33140625 4.35113281 16.0378125 4.30664062 16.765625 C4.20055249 18.51018537 4.09977111 20.25506697 4 22 C2.68 22 1.36 22 0 22 C0 14.74 0 7.48 0 0 Z " fill="#3962AC" transform="translate(1642,703)"/>
<path d="M0 0 C3.6875 0.3125 3.6875 0.3125 6.125 2.1875 C7.6875 4.3125 7.6875 4.3125 7.6875 6.3125 C2.7375 6.3125 -2.2125 6.3125 -7.3125 6.3125 C-3.7365 0.3525 -3.7365 0.3525 0 0 Z " fill="#F6F8FB" transform="translate(1614.3125,705.6875)"/>
<path d="M0 0 C2.875 2.4375 2.875 2.4375 5 5 C5 5.33 5 5.66 5 6 C0.05 6 -4.9 6 -10 6 C-8.52015735 0.08062939 -5.7603879 -0.80645431 0 0 Z " fill="#F6F8FB" transform="translate(1493,706)"/>
<path d="M0 0 C3.6875 0.3125 3.6875 0.3125 6.125 2.1875 C7.6875 4.3125 7.6875 4.3125 7.6875 6.3125 C2.7375 6.3125 -2.2125 6.3125 -7.3125 6.3125 C-3.7365 0.3525 -3.7365 0.3525 0 0 Z " fill="#F6F8FB" transform="translate(1364.3125,705.6875)"/>
</svg>
